<svg width="521" height="464" viewBox="0 0 521 464" fill="none" xmlns="http://www.w3.org/2000/svg">
<path d="M260.295 294.647C262.108 287.873 265.814 281.52 271.377 276.441C341.36 212.543 357.794 165.807 357.699 138.613C357.609 112.981 342.798 96.1718 326.166 88.5483L323.984 87.5483L321.945 86.2808C321.908 86.2611 320.644 85.5419 317.798 84.7007C315.01 83.8763 311.329 83.1221 306.922 82.7183C298.053 81.9054 287.432 82.6146 276.646 85.896C259.374 91.1508 239.623 103.553 225.412 132.082C214.073 129.946 201.904 132.98 192.727 141.359C182.75 150.469 173.494 159.5 164.938 168.443C148.704 159.7 140.828 140.186 147.194 122.276C169.43 59.7229 211.319 26.3308 254.526 13.186C293.35 1.37479 334.431 5.82434 359.801 20.3843C398.401 38.887 433.493 79.7395 433.699 138.345C433.82 172.756 421.894 209.853 396.072 249.047C388.617 240.655 376.107 237.395 364.948 242.68L268.968 288.137C265.475 289.792 262.583 292.03 260.295 294.647Z" fill="white"/>
<path d="M260.053 168.275C258.24 175.05 254.534 181.403 248.971 186.483C178.987 250.381 162.553 297.117 162.648 324.311C162.739 349.943 177.549 366.752 194.182 374.375L196.363 375.375L198.402 376.643C198.442 376.665 199.707 377.383 202.549 378.223C205.337 379.048 209.018 379.802 213.425 380.206C222.294 381.018 232.915 380.309 243.701 377.028C260.973 371.773 280.725 359.37 294.935 330.841C306.274 332.977 318.443 329.943 327.62 321.565C337.598 312.455 346.853 303.423 355.409 294.48C371.644 303.223 379.52 322.737 373.153 340.648C350.918 403.201 309.028 436.593 265.821 449.738C226.997 461.549 185.916 457.099 160.546 442.54C121.947 424.037 86.8548 383.184 86.6484 324.579C86.5274 290.168 98.4526 253.07 124.275 213.875C131.73 222.268 144.24 225.528 155.399 220.243L251.379 174.786C254.873 173.131 257.765 170.893 260.053 168.275Z" fill="#A3A3A3"/>
<path d="M150.401 231.242C134.399 238.821 115.616 228.834 112.951 211.33L96.9657 106.341C93.6935 84.8495 116.316 68.8146 135.511 79.0204L247.475 138.553C266.669 148.759 266.026 176.481 246.38 185.786L150.401 231.242Z" fill="white"/>
<path d="M370.435 232.525C386.437 224.946 405.22 234.933 407.885 252.437L423.87 357.426C427.142 378.918 404.519 394.952 385.325 384.747L273.361 325.214C254.167 315.008 254.81 287.287 274.456 277.982L370.435 232.525Z" fill="#A3A3A3"/>
</svg>
