<svg width="521" height="464" viewBox="0 0 521 464" fill="none" xmlns="http://www.w3.org/2000/svg">
<path d="M260.294 294.648C262.107 287.873 265.813 281.519 271.377 276.44C341.36 212.542 357.794 165.806 357.699 138.612C357.608 112.98 342.798 96.1708 326.166 88.5474L323.984 87.5474L321.945 86.2798C321.905 86.2582 320.64 85.5398 317.798 84.6997C315.01 83.8753 311.329 83.1212 306.922 82.7173C298.053 81.9044 287.432 82.6136 276.646 85.895C259.374 91.1498 239.623 103.553 225.412 132.082C214.073 129.946 201.904 132.979 192.727 141.358C182.749 150.468 173.494 159.5 164.938 168.443C148.704 159.7 140.828 140.185 147.194 122.275C169.43 59.722 211.319 26.3297 254.526 13.1851C293.35 1.37384 334.431 5.82344 359.801 20.3833C398.401 38.886 433.492 79.7386 433.699 138.344C433.82 172.755 421.895 209.852 396.072 249.047C388.617 240.655 376.107 237.395 364.948 242.68L268.968 288.137C265.474 289.792 262.582 292.03 260.294 294.648Z" fill="#1B2B5E"/>
<path d="M260.053 168.275C258.241 175.05 254.534 181.403 248.971 186.483C178.987 250.381 162.553 297.117 162.648 324.311C162.739 349.943 177.549 366.752 194.182 374.375L196.363 375.375L198.402 376.643C198.438 376.663 199.703 377.382 202.549 378.223C205.337 379.048 209.018 379.802 213.425 380.206C222.294 381.018 232.915 380.309 243.701 377.028C260.974 371.773 280.726 359.371 294.936 330.841C306.275 332.976 318.444 329.942 327.62 321.564C337.597 312.454 346.853 303.424 355.409 294.481C371.644 303.224 379.519 322.737 373.153 340.648C350.918 403.201 309.028 436.593 265.821 449.738C226.997 461.549 185.916 457.099 160.546 442.54C121.947 424.037 86.8547 383.184 86.6484 324.579C86.5275 290.168 98.4533 253.071 124.276 213.875C131.731 222.268 144.24 225.528 155.399 220.243L251.379 174.786C254.873 173.131 257.765 170.893 260.053 168.275Z" fill="#7ED347"/>
<path d="M150.401 231.242C134.399 238.821 115.616 228.834 112.951 211.33L96.9657 106.341C93.6935 84.8495 116.316 68.8146 135.511 79.0204L247.475 138.553C266.669 148.759 266.026 176.481 246.38 185.786L150.401 231.242Z" fill="#1B2B5E"/>
<path d="M370.435 232.525C386.437 224.946 405.22 234.933 407.885 252.437L423.87 357.426C427.142 378.918 404.519 394.952 385.325 384.747L273.361 325.214C254.167 315.008 254.81 287.287 274.456 277.982L370.435 232.525Z" fill="#7ED347"/>
</svg>
